<svg width="45" height="45" viewBox="0 0 45 45" fill="none" xmlns="http://www.w3.org/2000/svg">
<path d="M13.7109 37.7051C14.1961 37.7051 14.5898 38.0988 14.5898 38.584C14.5898 39.0691 14.1961 39.4629 13.7109 39.4629C13.2258 39.4629 12.832 39.0691 12.832 38.584C12.832 38.0988 13.2258 37.7051 13.7109 37.7051Z" fill="#A688CE"/>
<path d="M31.2891 37.7051C31.7742 37.7051 32.168 38.0988 32.168 38.584C32.168 39.0691 31.7742 39.4629 31.2891 39.4629C30.8039 39.4629 30.4102 39.0691 30.4102 38.584C30.4102 38.0988 30.8039 37.7051 31.2891 37.7051Z" fill="#A688CE"/>
<path d="M7.44218 32.0236C8.32666 30.6546 9.54208 29.5668 10.9659 28.8643C11.0859 28.7528 11.2403 28.6781 11.412 28.659C12.4418 28.2218 13.5274 28 14.6429 28H17V25.9271C15.6359 24.7567 14.6553 23.2064 14.1798 21.4786H13.8571C12.1242 21.4786 10.7143 20.0687 10.7143 18.3357C10.7143 17.5145 11.0312 16.7662 11.5489 16.2056C11.4994 16.1637 11.4512 16.12 11.4048 16.0737C10.9595 15.6284 10.7143 15.0365 10.7143 14.4071C10.7143 13.3729 11.3842 12.4927 12.3127 12.176C12.5903 8.563 15.126 5.47546 18.6173 4.50777C18.8242 3.42726 19.7159 2.38572 20.9286 2.38572H24.0714C25.2841 2.38572 26.1758 3.42726 26.3827 4.50777C29.8737 5.47538 32.4092 8.56237 32.6873 12.1749C33.0253 12.2896 33.3352 12.4807 33.5951 12.7406C34.0405 13.1859 34.2857 13.7778 34.2857 14.4071C34.2857 15.1271 33.9609 15.7723 33.4505 16.205C33.9684 16.7655 34.2857 17.5142 34.2857 18.3357C34.2857 20.0687 32.8758 21.4786 31.1429 21.4786H30.8224C30.4255 22.9209 29.6729 24.2451 28.6229 25.3389C28.4256 25.5446 28.2165 25.7405 28 25.9264V28H30.3571C31.4727 28 32.5582 28.2218 33.588 28.6589C33.7596 28.6781 33.9141 28.7527 34.034 28.8642C35.458 29.5668 36.6733 30.6546 37.5578 32.0236C38.5013 33.484 39 35.1628 39 36.8786V41.8286C39 42.2624 38.6482 42.6143 38.2143 42.6143H6.78571C6.35176 42.6143 6 42.2624 6 41.8286V36.8786C6 35.1628 6.49869 33.484 7.44218 32.0236ZM34.2857 41.0429H37.4286V36.8786C37.4286 34.4887 36.2043 32.198 34.2857 30.8382V41.0429ZM13.8571 19.9071H13.893C13.8696 19.6457 13.8571 19.3834 13.8571 19.1214V16.7643C12.9907 16.7643 12.2857 17.4692 12.2857 18.3357C12.2857 19.2022 12.9907 19.9071 13.8571 19.9071ZM26.4286 6.16807V9.69286C26.4286 10.1268 26.0768 10.4786 25.6429 10.4786C25.2089 10.4786 24.8571 10.1268 24.8571 9.69286V5.14067C24.8571 5.13862 24.8571 5.13658 24.8571 5.13454V4.97857C24.8571 4.49174 24.4459 3.95714 24.0714 3.95714H20.9286C20.5541 3.95714 20.1429 4.49174 20.1429 4.97857V5.13454C20.1429 5.13658 20.1429 5.13862 20.1429 5.14067V9.69286C20.1429 10.1268 19.7911 10.4786 19.3571 10.4786C18.9232 10.4786 18.5714 10.1268 18.5714 9.69286V6.16807C16.0344 7.0659 14.2029 9.36176 13.9011 12.05H31.0989C30.7971 9.36176 28.9656 7.0659 26.4286 6.16807ZM31.1429 19.9071C32.0093 19.9071 32.7143 19.2022 32.7143 18.3357C32.7143 17.4692 32.0093 16.7643 31.1429 16.7643V19.1214C31.1429 19.3834 31.1304 19.6458 31.107 19.9071H31.1429ZM31.1429 15.1929H31.9286C32.3618 15.1929 32.7143 14.8404 32.7143 14.4071C32.7143 14.1975 32.6325 14.0002 32.484 13.8518C32.3354 13.7032 32.1382 13.6214 31.9286 13.6214H13.0714C12.6382 13.6214 12.2857 13.9739 12.2857 14.4071C12.2857 14.6168 12.3675 14.8141 12.516 14.9625C12.6645 15.1111 12.8618 15.1929 13.0714 15.1929H13.8571H14.6429H30.3571H31.1429ZM29.4287 20.5501C29.4302 20.5415 29.4317 20.533 29.4336 20.5246C29.5248 20.0635 29.5714 19.5915 29.5714 19.1214V16.7643H15.4286V19.1214C15.4286 19.5911 15.4752 20.0628 15.5664 20.5243C15.5683 20.5328 15.5698 20.5414 15.5713 20.5499C15.9225 22.3026 16.8942 23.8715 18.3093 24.9689C19.5386 25.9238 20.9877 26.4286 22.5 26.4286C24.0123 26.4286 25.4614 25.9238 26.6919 24.968C26.9735 24.7501 27.2416 24.5089 27.489 24.251C28.4801 23.2184 29.1505 21.9392 29.4287 20.5501ZM23.2857 41.0429H29.5714V39.2357C29.5714 38.8018 29.9232 38.45 30.3571 38.45C30.7911 38.45 31.1429 38.8018 31.1429 39.2357V41.0429H32.7143V30.0015C32.2044 29.8093 31.679 29.6811 31.1429 29.6179V34.5214C31.1429 34.9554 30.7911 35.3071 30.3571 35.3071C29.9232 35.3071 29.5714 34.9554 29.5714 34.5214V29.5714H27.551L23.2857 34.05V41.0429ZM26.4286 28.4714V27.008C25.2161 27.6597 23.8807 28 22.5 28C21.1192 28 19.7837 27.6596 18.5714 27.008V28.4714L22.5 32.5964L26.4286 28.4714ZM12.2857 41.0429H13.8571V39.2357C13.8571 38.8018 14.2089 38.45 14.6429 38.45C15.0768 38.45 15.4286 38.8018 15.4286 39.2357V41.0429H21.7143V34.05L17.449 29.5714H15.4286V34.5214C15.4286 34.9554 15.0768 35.3071 14.6429 35.3071C14.2089 35.3071 13.8571 34.9554 13.8571 34.5214V29.6179C13.321 29.6811 12.7957 29.8093 12.2857 30.0016V41.0429ZM7.57143 41.0429H10.7143V30.8381C8.79573 32.1979 7.57143 34.4886 7.57143 36.8786V41.0429Z" fill="#A688CE"/>
</svg>
