<svg width="45" height="45" viewBox="0 0 45 45" fill="none" xmlns="http://www.w3.org/2000/svg">
<path d="M28.1177 41.187H15.8486C15.3082 41.1863 14.7902 40.9714 14.4081 40.5892C14.0261 40.2071 13.8113 39.689 13.8108 39.1486V19.6521C13.8116 19.1119 14.0265 18.594 14.4085 18.212C14.7905 17.83 15.3084 17.6151 15.8486 17.6143H28.1177C28.658 17.6149 29.1761 17.8298 29.5582 18.2118C29.9403 18.5938 30.1553 19.1118 30.1561 19.6521V39.1486C30.1555 39.689 29.9405 40.2071 29.5584 40.5893C29.1762 40.9714 28.6582 41.1863 28.1177 41.187V41.187ZM15.8486 18.8281C15.7405 18.8282 15.6335 18.8495 15.5337 18.891C15.4339 18.9325 15.3433 18.9932 15.267 19.0697C15.1906 19.1463 15.1302 19.2371 15.089 19.337C15.0478 19.4369 15.0268 19.544 15.027 19.6521V39.1486C15.0272 39.3665 15.1138 39.5754 15.2678 39.7296C15.4218 39.8837 15.6307 39.9705 15.8486 39.9708H28.1177C28.3357 39.9705 28.5446 39.8837 28.6987 39.7296C28.8529 39.5755 28.9396 39.3666 28.9399 39.1486V19.6521C28.9396 19.4342 28.8528 19.2253 28.6987 19.0713C28.5446 18.9173 28.3356 18.8307 28.1177 18.8305L15.8486 18.8281Z" fill="#A688CE"/>
<path d="M29.3887 23.0575H14.5782C14.4169 23.0575 14.2622 22.9934 14.1482 22.8794C14.0342 22.7653 13.9701 22.6107 13.9701 22.4494C13.9701 22.2881 14.0342 22.1334 14.1482 22.0194C14.2622 21.9053 14.4169 21.8413 14.5782 21.8413H29.3887C29.55 21.8413 29.7046 21.9053 29.8187 22.0194C29.9327 22.1334 29.9968 22.2881 29.9968 22.4494C29.9968 22.6107 29.9327 22.7653 29.8187 22.8794C29.7046 22.9934 29.55 23.0575 29.3887 23.0575Z" fill="#A688CE"/>
<path d="M19.395 18.8281H16.22C16.0798 18.8281 15.9439 18.7797 15.8353 18.691C15.7267 18.6024 15.6521 18.4789 15.6241 18.3416C15.2941 16.4139 14.4822 14.6008 13.2638 13.0709C12.0455 11.541 10.4601 10.3439 8.65515 9.59091C8.50657 9.52837 8.3889 9.40939 8.32801 9.26012C8.26712 9.11086 8.26799 8.94352 8.33042 8.79489L9.54299 5.91368C9.60554 5.7654 9.72431 5.64796 9.87329 5.58709C10.0223 5.52622 10.1893 5.52689 10.3378 5.58895C17.3839 8.55591 19.4114 14.7106 19.9921 18.116C20.007 18.2032 20.0026 18.2926 19.9794 18.3779C19.9561 18.4633 19.9146 18.5425 19.8575 18.6102C19.8005 18.6778 19.7294 18.7322 19.6492 18.7695C19.569 18.8068 19.4816 18.8262 19.3931 18.8262L19.395 18.8281ZM16.7083 17.6119H18.6604C17.8966 13.9735 15.8223 9.4632 10.4241 6.95598L9.68286 8.71949C11.4629 9.55591 13.0241 10.7946 14.2434 12.3379C15.4626 13.8811 16.3065 15.6866 16.7083 17.6119Z" fill="#A688CE"/>
<path d="M27.9601 18.8279H24.7675C24.6791 18.8279 24.5917 18.8085 24.5115 18.7712C24.4313 18.7339 24.3602 18.6795 24.3032 18.6119C24.2461 18.5442 24.2045 18.465 24.1813 18.3796C24.158 18.2943 24.1537 18.2049 24.1686 18.1177C24.7493 14.7123 26.7767 8.55579 33.8229 5.59065C33.8965 5.55966 33.9756 5.54349 34.0555 5.54307C34.1354 5.54265 34.2146 5.55798 34.2886 5.5882C34.3626 5.61841 34.4299 5.66292 34.4867 5.71916C34.5435 5.77541 34.5886 5.84229 34.6195 5.91599L35.8321 8.79721C35.8945 8.94583 35.8954 9.11317 35.8345 9.26243C35.7736 9.4117 35.6559 9.53068 35.5073 9.59322C30.8669 11.5477 29.1654 15.4311 28.5554 18.3463C28.5264 18.4827 28.4515 18.6049 28.3431 18.6926C28.2347 18.7803 28.0995 18.8281 27.9601 18.8279V18.8279ZM25.5027 17.6117H27.4742C27.8783 15.69 28.7208 13.8876 29.9359 12.3449C31.151 10.8023 32.706 9.56112 34.4796 8.71815L33.7377 6.95464C28.3377 9.46248 26.2659 13.9734 25.5027 17.6117Z" fill="#A688CE"/>
<path d="M23.8257 18.8282H20.1406C19.9793 18.8282 19.8246 18.7641 19.7106 18.6501C19.5965 18.5361 19.5325 18.3814 19.5325 18.2201V1.96355C19.5325 1.80227 19.5965 1.64759 19.7106 1.53355C19.8246 1.41951 19.9793 1.35544 20.1406 1.35544H23.8257C23.987 1.35544 24.1417 1.41951 24.2557 1.53355C24.3697 1.64759 24.4338 1.80227 24.4338 1.96355V18.2201C24.4338 18.3814 24.3697 18.5361 24.2557 18.6501C24.1417 18.7641 23.987 18.8282 23.8257 18.8282ZM20.7487 17.612H23.2176V2.57165H20.7487V17.612Z" fill="#A688CE"/>
<path d="M9.48653 10.1013C9.40425 10.1014 9.3228 10.0848 9.24713 10.0525C9.17145 10.0202 9.10311 9.97291 9.04626 9.91343C8.25596 9.22987 7.28938 8.78229 6.25687 8.62181C6.17766 8.60759 6.10207 8.57779 6.03446 8.53414C5.96686 8.49049 5.90859 8.43385 5.86304 8.36751C5.81749 8.30118 5.78555 8.22646 5.76909 8.14769C5.75262 8.06892 5.75196 7.98767 5.76713 7.90864C5.7823 7.82961 5.813 7.75438 5.85746 7.6873C5.90192 7.62023 5.95925 7.56264 6.02613 7.51789C6.09301 7.47313 6.1681 7.4421 6.24706 7.42658C6.32603 7.41106 6.40728 7.41137 6.48612 7.42749C7.77044 7.62759 8.96759 8.20089 9.92862 9.07607C10.0101 9.16245 10.0644 9.27078 10.085 9.38769C10.1056 9.50461 10.0916 9.625 10.0446 9.73402C9.99756 9.84303 9.91967 9.9359 9.82051 10.0012C9.72135 10.0664 9.60525 10.1013 9.48653 10.1013V10.1013Z" fill="#A688CE"/>
<path d="M34.6215 9.97294C34.4975 9.9731 34.3764 9.93536 34.2745 9.86478C34.1726 9.7942 34.0946 9.69415 34.0512 9.57804C34.0077 9.46193 34.0008 9.33531 34.0313 9.21514C34.0618 9.09498 34.1283 8.98701 34.2219 8.90572C35.1602 8.13366 36.2863 7.62419 37.4856 7.42923C37.6442 7.39947 37.808 7.43391 37.9412 7.52498C38.0743 7.61604 38.1659 7.75627 38.1956 7.9148C38.2254 8.07334 38.1909 8.23721 38.0999 8.37035C38.0088 8.5035 37.8686 8.59501 37.71 8.62477C36.7241 8.7822 35.7967 9.19548 35.0204 9.82335C34.9098 9.91969 34.7681 9.97282 34.6215 9.97294V9.97294Z" fill="#A688CE"/>
<path d="M21.9831 4.44648C21.8218 4.44648 21.6672 4.38241 21.5531 4.26837C21.4391 4.15432 21.375 3.99965 21.375 3.83837V1.10188C21.375 0.940602 21.4391 0.785928 21.5531 0.671885C21.6672 0.557843 21.8218 0.493774 21.9831 0.493774C22.1444 0.493774 22.2991 0.557843 22.4131 0.671885C22.5272 0.785928 22.5912 0.940602 22.5912 1.10188V3.83837C22.5912 3.99965 22.5272 4.15432 22.4131 4.26837C22.2991 4.38241 22.1444 4.44648 21.9831 4.44648Z" fill="#A688CE"/>
</svg>
