<svg width="45" height="45" viewBox="0 0 45 45" fill="none" xmlns="http://www.w3.org/2000/svg">
<path d="M44.9889 22.5C44.9889 22.1724 44.8066 21.872 44.5159 21.7207L36.042 17.3115L44.5159 12.9023C44.8066 12.751 44.9889 12.4506 44.9889 12.123C44.9889 11.7954 44.8066 11.495 44.5159 11.3437L37.2171 7.5459C36.7864 7.32198 36.2562 7.48933 36.0323 7.91969C35.8084 8.35005 35.9756 8.88056 36.4061 9.10448L42.2072 12.1229L22.5001 22.377L2.79291 12.1229L22.5001 1.86878L29.3932 5.4554C29.8239 5.67932 30.354 5.51189 30.578 5.08161C30.8019 4.65125 30.6345 4.12074 30.2042 3.89682L22.9056 0.0991879C22.6513 -0.033022 22.3488 -0.033022 22.0946 0.0991879L0.484199 11.3436C0.193513 11.4948 0.0112305 11.7952 0.0112305 12.1229C0.0112305 12.4506 0.193513 12.7509 0.484199 12.9022L8.95819 17.3114L0.484199 21.7207C0.193513 21.872 0.0112305 22.1724 0.0112305 22.5C0.0112305 22.8276 0.193513 23.128 0.484199 23.2793L8.95819 27.6885L0.484199 32.0978C0.193513 32.2491 0.0112305 32.5496 0.0112305 32.8771C0.0112305 33.2047 0.193513 33.5052 0.484199 33.6564L22.0946 44.9009C22.2217 44.9669 22.3608 45 22.5001 45C22.6393 45 22.7785 44.967 22.9056 44.9009L44.5159 33.6564C44.8066 33.5052 44.9889 33.2047 44.9889 32.8771C44.9889 32.5496 44.8066 32.2491 44.5159 32.0978L36.042 27.6885L44.5159 23.2793C44.8066 23.128 44.9889 22.8276 44.9889 22.5V22.5ZM22.9056 24.1466L34.1387 18.3017L36.7577 19.6645L17.0819 29.935L13.5767 28.1111L21.6451 23.9129L22.0945 24.1466C22.2216 24.2127 22.3607 24.2458 22.5 24.2458C22.6392 24.2458 22.7785 24.2127 22.9056 24.1466ZM19.7419 22.9225L11.6734 27.1207L8.18478 25.3055L16.2534 21.1073L19.7419 22.9225ZM10.8615 18.3017L14.3501 20.117L6.28149 24.3152L2.79282 22.4999L10.8615 18.3017ZM42.2072 32.8771L22.5001 43.1313L2.79291 32.8771L10.8615 28.6789L22.0946 34.5238C22.2217 34.5899 22.3608 34.623 22.5001 34.623C22.6393 34.623 22.7785 34.59 22.9056 34.5238L34.1387 28.6789L42.2072 32.8771ZM22.5001 32.7542L18.9833 30.9243L38.6592 20.6539L42.2072 22.5L22.5001 32.7542Z" fill="#A688CE"/>
<path d="M33.3054 7.37917C33.5364 7.37917 33.763 7.28517 33.9263 7.12177C34.0897 6.95838 34.1838 6.73173 34.1838 6.50069C34.1838 6.26966 34.0898 6.04301 33.9263 5.87962C33.763 5.71622 33.5364 5.62222 33.3054 5.62222C33.0743 5.62222 32.8477 5.71622 32.6843 5.87962C32.5209 6.04301 32.4269 6.26966 32.4269 6.50069C32.4269 6.73173 32.5208 6.95838 32.6843 7.12177C32.8478 7.28517 33.0743 7.37917 33.3054 7.37917Z" fill="#A688CE"/>
</svg>
