<svg width="45" height="45" viewBox="0 0 45 45" fill="none" xmlns="http://www.w3.org/2000/svg">
<path d="M26.5773 35.4064H3.6249C2.98621 35.4056 2.37392 35.1515 1.92236 34.6998C1.47079 34.2482 1.21683 33.6358 1.21619 32.9971V27.5351C1.21699 26.8965 1.47102 26.2843 1.92257 25.8327C2.37412 25.3812 2.98632 25.1272 3.6249 25.1264H26.5773C27.216 25.127 27.8284 25.381 28.2801 25.8325C28.7317 26.2841 28.9859 26.8964 28.9867 27.5351V32.9971C28.986 33.6359 28.732 34.2483 28.2803 34.7C27.8286 35.1517 27.2161 35.4058 26.5773 35.4064ZM3.6249 26.3426C3.30878 26.3431 3.00574 26.4689 2.78221 26.6924C2.55868 26.9159 2.43289 27.219 2.4324 27.5351V32.9971C2.43272 33.3133 2.55845 33.6165 2.782 33.8402C3.00555 34.0639 3.30868 34.1897 3.6249 34.1902H26.5773C26.8937 34.1899 27.197 34.0641 27.4206 33.8404C27.6443 33.6167 27.7701 33.3134 27.7704 32.9971V27.5351C27.77 27.2189 27.6441 26.9157 27.4204 26.6922C27.1968 26.4686 26.8936 26.3429 26.5773 26.3426H3.6249Z" fill="#A688CE"/>
<path d="M26.5689 26.3432H3.63411C3.47283 26.3432 3.31815 26.2791 3.20411 26.1651C3.09007 26.051 3.026 25.8964 3.026 25.7351V12.2272C3.02648 11.675 3.24599 11.1456 3.63635 10.7552C4.02671 10.3647 4.55603 10.145 5.10816 10.1444H15.6509C16.2032 10.1449 16.7327 10.3645 17.1231 10.755C17.5136 11.1454 17.7332 11.6749 17.7337 12.2272V19.5275C17.7339 19.7572 17.8251 19.9774 17.9875 20.1399C18.1498 20.3023 18.37 20.3937 18.5997 20.3941H25.0949C25.6469 20.3947 26.1761 20.6143 26.5665 21.0046C26.9568 21.395 27.1764 21.9242 27.177 22.4762V25.7351C27.177 25.8964 27.1129 26.051 26.9989 26.1651C26.8849 26.2791 26.7302 26.3432 26.5689 26.3432ZM4.24222 25.127H25.9608V22.4762C25.9605 22.2467 25.8691 22.0266 25.7068 21.8643C25.5445 21.7019 25.3244 21.6106 25.0949 21.6103H18.5997C18.0475 21.6096 17.5182 21.39 17.1278 20.9995C16.7375 20.609 16.518 20.0796 16.5175 19.5275V12.2302C16.5172 12.0005 16.4258 11.7803 16.2633 11.6178C16.1009 11.4554 15.8807 11.364 15.6509 11.3637H5.10816C4.87849 11.364 4.65833 11.4554 4.49599 11.6179C4.33364 11.7803 4.24238 12.0005 4.24222 12.2302V25.127Z" fill="#A688CE"/>
<path d="M24.5067 21.6101H19.187C19.0257 21.6101 18.871 21.546 18.757 21.432C18.6429 21.318 18.5789 21.1633 18.5789 21.002V19.5219C18.5793 19.1337 18.7338 18.7616 19.0083 18.4872C19.2828 18.2128 19.655 18.0585 20.0432 18.0581H23.6517C24.0396 18.0588 24.4115 18.2132 24.6858 18.4876C24.96 18.762 25.1143 19.1339 25.1148 19.5219V21.002C25.1148 21.1633 25.0507 21.318 24.9367 21.432C24.8227 21.546 24.668 21.6101 24.5067 21.6101ZM19.7945 20.3939H23.8986V19.5219C23.8984 19.4563 23.8723 19.3934 23.8259 19.347C23.7795 19.3006 23.7167 19.2745 23.6511 19.2744H20.0432C19.9775 19.2744 19.9145 19.3004 19.868 19.3468C19.8214 19.3932 19.7952 19.4562 19.7951 19.5219L19.7945 20.3939Z" fill="#A688CE"/>
<path d="M23.6494 19.2745H20.3625C20.2101 19.2751 20.063 19.2184 19.9504 19.1157C19.8378 19.013 19.7678 18.8718 19.7544 18.7199L19.1463 11.9389C19.136 11.5646 19.2407 11.1962 19.4462 10.8832C19.6517 10.5701 19.9481 10.3276 20.2956 10.1882L29.8983 7.26926C30.0526 7.22232 30.2193 7.23863 30.3616 7.31458C30.504 7.39053 30.6103 7.51991 30.6572 7.67426C30.7041 7.8286 30.6878 7.99527 30.6119 8.1376C30.5359 8.27992 30.4066 8.38624 30.2522 8.43318L20.6994 11.3363C20.5976 11.3865 20.5122 11.4646 20.453 11.5615C20.3938 11.6584 20.3632 11.7701 20.365 11.8836L20.9183 18.0571H22.978L22.5061 13.2926C22.4927 13.1584 22.5243 13.0236 22.5958 12.9094C22.6674 12.7951 22.7749 12.7079 22.9014 12.6614L30.3629 9.91818C30.4383 9.88849 30.5189 9.87418 30.5999 9.87609C30.6809 9.87799 30.7607 9.89607 30.8347 9.92927C30.9086 9.96246 30.9752 10.0101 31.0304 10.0694C31.0857 10.1287 31.1285 10.1984 31.1565 10.2745C31.1844 10.3506 31.1968 10.4315 31.1931 10.5124C31.1893 10.5934 31.1693 10.6728 31.1344 10.7459C31.0995 10.819 31.0504 10.8845 30.9898 10.9383C30.9293 10.9922 30.8586 11.0334 30.7819 11.0596L23.7625 13.6416L24.2544 18.6062C24.2629 18.6908 24.2536 18.7762 24.2271 18.8569C24.2005 18.9377 24.1574 19.0119 24.1004 19.075C24.0433 19.138 23.9738 19.1884 23.8961 19.2228C23.8184 19.2573 23.7344 19.2751 23.6494 19.2751V19.2745Z" fill="#A688CE"/>
<path d="M37.3628 18.2023C37.2743 18.2022 37.1868 18.1828 37.1066 18.1454C37.0263 18.108 36.9552 18.0535 36.8982 17.9858L31.3371 11.3805C31.2331 11.2571 31.1824 11.0975 31.1962 10.9368C31.2099 10.776 31.287 10.6273 31.4103 10.5234C31.5337 10.4194 31.6933 10.3688 31.8541 10.3825C32.0148 10.3962 32.1635 10.4733 32.2675 10.5967L37.3421 16.6255C37.5851 16.4026 37.8726 16.2339 38.1856 16.1304L33.5676 9.20409C33.4815 9.0699 33.4516 8.90725 33.4842 8.75119C33.5169 8.59514 33.6095 8.45814 33.7422 8.36972C33.8749 8.2813 34.037 8.24852 34.1936 8.27844C34.3502 8.30836 34.4888 8.39859 34.5795 8.5297L39.7673 16.3135C39.8344 16.414 39.87 16.5321 39.8696 16.6529C39.8693 16.7737 39.833 16.8917 39.7653 16.9918C39.6977 17.0918 39.6018 17.1695 39.4898 17.2148C39.3778 17.2602 39.2549 17.2711 39.1367 17.2463C39.0684 17.2327 38.9989 17.2262 38.9293 17.2269C38.7161 17.2266 38.5072 17.2861 38.3262 17.3988C38.1453 17.5115 37.9996 17.6727 37.9059 17.8642C37.8611 17.9546 37.7945 18.0325 37.7121 18.0907C37.6297 18.149 37.5341 18.1859 37.434 18.198C37.4103 18.2009 37.3866 18.2023 37.3628 18.2023Z" fill="#A688CE"/>
<path d="M7.50769 32.6808C7.03006 32.6809 6.56313 32.5394 6.16594 32.2741C5.76875 32.0089 5.45914 31.6318 5.27628 31.1905C5.09341 30.7493 5.04551 30.2637 5.13861 29.7953C5.23172 29.3268 5.46166 28.8965 5.79935 28.5587C6.13704 28.2209 6.56732 27.9909 7.03576 27.8976C7.5042 27.8044 7.98977 27.8522 8.43105 28.0349C8.87233 28.2177 9.24951 28.5272 9.51487 28.9243C9.78024 29.3215 9.92188 29.7884 9.92188 30.266C9.92124 30.9061 9.6667 31.5199 9.21411 31.9726C8.76152 32.4253 8.14783 32.68 7.50769 32.6808ZM7.50769 29.0674C7.27061 29.0673 7.03882 29.1375 6.84163 29.2691C6.64445 29.4007 6.49073 29.5879 6.39991 29.8069C6.3091 30.0259 6.28528 30.2669 6.33146 30.4994C6.37764 30.732 6.49174 30.9456 6.65934 31.1133C6.82694 31.281 7.04051 31.3952 7.27303 31.4415C7.50555 31.4878 7.74657 31.4641 7.96562 31.3734C8.18467 31.2827 8.3719 31.1291 8.50363 30.932C8.63536 30.7348 8.70567 30.5031 8.70567 30.266C8.70518 29.9484 8.57883 29.6439 8.35429 29.4192C8.12975 29.1946 7.82532 29.0681 7.50769 29.0674Z" fill="#A688CE"/>
<path d="M15.1012 32.681C14.6235 32.6815 14.1564 32.5403 13.7589 32.2752C13.3615 32.0102 13.0516 31.6332 12.8685 31.192C12.6853 30.7508 12.6372 30.2652 12.7301 29.7966C12.823 29.328 13.0528 28.8975 13.3904 28.5595C13.728 28.2216 14.1583 27.9914 14.6268 27.898C15.0953 27.8046 15.5809 27.8523 16.0223 28.035C16.4637 28.2177 16.841 28.5272 17.1064 28.9244C17.3719 29.3215 17.5136 29.7885 17.5136 30.2662C17.5128 30.906 17.2584 31.5194 16.8063 31.972C16.3541 32.4246 15.741 32.6796 15.1012 32.681ZM15.1012 29.0676C14.864 29.0671 14.6321 29.137 14.4346 29.2684C14.2372 29.3998 14.0832 29.5869 13.9921 29.8058C13.901 30.0248 13.8769 30.2659 13.9229 30.4985C13.9689 30.7312 14.0828 30.945 14.2504 31.1129C14.4179 31.2807 14.6315 31.3951 14.864 31.4416C15.0966 31.488 15.3377 31.4644 15.5569 31.3738C15.776 31.2831 15.9634 31.1295 16.0952 30.9324C16.227 30.7352 16.2973 30.5034 16.2973 30.2662C16.2969 29.9489 16.1708 29.6447 15.9466 29.4201C15.7225 29.1955 15.4185 29.0687 15.1012 29.0676Z" fill="#A688CE"/>
<path d="M22.6946 32.6808C22.217 32.6808 21.7501 32.5392 21.353 32.2738C20.9559 32.0085 20.6464 31.6313 20.4636 31.1901C20.2808 30.7488 20.233 30.2633 20.3262 29.7949C20.4194 29.3265 20.6493 28.8962 20.9871 28.5585C21.3248 28.2208 21.7551 27.9908 22.2235 27.8976C22.6919 27.8044 23.1774 27.8522 23.6187 28.035C24.0599 28.2178 24.4371 28.5273 24.7024 28.9244C24.9678 29.3215 25.1094 29.7884 25.1094 30.266C25.1087 30.9062 24.8541 31.5201 24.4014 31.9728C23.9487 32.4255 23.3348 32.6802 22.6946 32.6808ZM22.6946 29.0674C22.4575 29.0674 22.2258 29.1377 22.0287 29.2694C21.8316 29.4011 21.678 29.5883 21.5872 29.8073C21.4965 30.0263 21.4728 30.2673 21.519 30.4998C21.5653 30.7323 21.6794 30.9459 21.8471 31.1135C22.0147 31.2811 22.2283 31.3953 22.4608 31.4415C22.6933 31.4878 22.9343 31.4641 23.1533 31.3733C23.3723 31.2826 23.5595 31.129 23.6912 30.9319C23.8229 30.7348 23.8932 30.503 23.8932 30.266C23.8928 29.9482 23.7665 29.6435 23.5418 29.4188C23.317 29.1941 23.0124 29.0677 22.6946 29.0674Z" fill="#A688CE"/>
<path d="M36.385 28.7482C35.8889 28.7475 35.3944 28.6924 34.9103 28.584C33.1978 28.1735 31.7053 27.1275 30.7351 25.6578L30.0777 24.7389C30.0122 24.6472 29.9735 24.5391 29.9659 24.4267C29.9582 24.3143 29.982 24.2019 30.0345 24.1022C30.0871 24.003 30.166 23.9202 30.2626 23.8628C30.3591 23.8055 30.4695 23.7757 30.5818 23.7769L33.4642 23.8316L37.4279 19.3706C37.5299 19.2556 37.6717 19.1836 37.8246 19.1689C37.9776 19.1542 38.1305 19.198 38.2525 19.2915C38.5057 19.4687 38.8187 19.5388 39.1234 19.4864C39.428 19.434 39.6997 19.2634 39.8792 19.0118C39.9271 18.9397 39.9898 18.8787 40.0632 18.8328C40.1366 18.787 40.2189 18.7573 40.3047 18.7458C40.3904 18.7342 40.4777 18.7412 40.5605 18.7661C40.6434 18.791 40.72 18.8333 40.7853 18.8901L42.9361 20.7753C43.4299 21.2101 43.7318 21.8225 43.776 22.4789C43.8202 23.1354 43.6031 23.7827 43.1721 24.2798L41.1574 26.5809C40.5642 27.2636 39.8309 27.8105 39.0073 28.1845C38.1838 28.5585 37.2894 28.7507 36.385 28.7482ZM31.7701 25.0156C32.5669 26.2079 33.7821 27.0577 35.1755 27.397C36.0867 27.6138 37.0399 27.5783 37.9325 27.2941C38.8251 27.01 39.6234 26.488 40.2416 25.7843L42.2544 23.4844C42.4748 23.2303 42.5856 22.8994 42.5628 22.5639C42.5401 22.2284 42.3855 21.9155 42.1328 21.6935L40.4265 20.1964C40.0907 20.4643 39.6895 20.6379 39.2644 20.6994C38.8392 20.7608 38.4053 20.7079 38.0074 20.546L34.1885 24.8484C34.129 24.9127 34.0568 24.964 33.9766 24.9992C33.8963 25.0343 33.8097 25.0525 33.7221 25.0527L31.7701 25.0156Z" fill="#A688CE"/>
<path d="M38.9311 20.7321C38.4187 20.735 37.9198 20.5675 37.513 20.256C37.2219 20.0352 36.9856 19.7503 36.8225 19.4233C36.6595 19.0964 36.574 18.7362 36.5729 18.3708C36.5738 17.7457 36.8226 17.1464 37.2647 16.7044C37.7067 16.2623 38.306 16.0136 38.9311 16.0126C39.0845 16.0119 39.2375 16.027 39.3878 16.0576C39.9239 16.1625 40.4068 16.4503 40.7543 16.8717C41.1018 17.2932 41.2922 17.8222 41.293 18.3684C41.2952 18.8411 41.1531 19.3032 40.8856 19.6929C40.6702 20.0133 40.3792 20.2757 40.0383 20.457C39.6975 20.6382 39.3172 20.7327 38.9311 20.7321ZM38.9311 17.227C38.7179 17.2267 38.509 17.2863 38.328 17.3989C38.1471 17.5116 38.0014 17.6728 37.9077 17.8643C37.8277 18.0205 37.786 18.1935 37.7861 18.369C37.7866 18.5471 37.8284 18.7226 37.908 18.8819C37.9877 19.0412 38.1031 19.1799 38.2452 19.2873C38.3704 19.3764 38.5119 19.4399 38.6617 19.4743C38.8115 19.5086 38.9665 19.513 39.1181 19.4873C39.2696 19.4616 39.4145 19.4063 39.5446 19.3245C39.6747 19.2427 39.7873 19.136 39.8761 19.0106C40.006 18.8219 40.0749 18.598 40.0737 18.369C40.0734 18.1036 39.9807 17.8465 39.8115 17.642C39.6422 17.4375 39.4071 17.2983 39.1464 17.2483C39.0755 17.2339 39.0034 17.2267 38.9311 17.227Z" fill="#A688CE"/>
<path d="M31.9482 11.6021C31.4069 11.6021 30.8779 11.4416 30.4278 11.1409C29.9778 10.8402 29.6271 10.4128 29.42 9.9128C29.2129 9.41277 29.1587 8.86255 29.2643 8.33173C29.3698 7.8009 29.6305 7.31331 30.0132 6.9306C30.3959 6.5479 30.8835 6.28727 31.4143 6.18169C31.9451 6.0761 32.4953 6.13029 32.9954 6.33741C33.4954 6.54453 33.9228 6.89527 34.2235 7.34528C34.5242 7.79529 34.6846 8.32436 34.6846 8.86559C34.6846 9.59135 34.3963 10.2874 33.8831 10.8006C33.37 11.3138 32.6739 11.6021 31.9482 11.6021ZM31.9482 7.34532C31.6475 7.34532 31.3535 7.43448 31.1035 7.60153C30.8535 7.76858 30.6587 8.00602 30.5436 8.28381C30.4285 8.5616 30.3984 8.86728 30.4571 9.16218C30.5158 9.45708 30.6606 9.72797 30.8732 9.94058C31.0858 10.1532 31.3567 10.298 31.6516 10.3566C31.9465 10.4153 32.2521 10.3852 32.5299 10.2701C32.8077 10.1551 33.0452 9.96021 33.2122 9.7102C33.3793 9.4602 33.4684 9.16627 33.4684 8.86559C33.4676 8.46292 33.3071 8.07701 33.0221 7.79256C32.7371 7.50811 32.3508 7.34836 31.9482 7.34836V7.34532Z" fill="#A688CE"/>
<path d="M31.9482 9.43723C32.2629 9.43723 32.518 9.18212 32.518 8.86743C32.518 8.55274 32.2629 8.29763 31.9482 8.29763C31.6335 8.29763 31.3784 8.55274 31.3784 8.86743C31.3784 9.18212 31.6335 9.43723 31.9482 9.43723Z" fill="#A688CE"/>
<path d="M31.9482 9.74132C31.7754 9.7412 31.6065 9.68984 31.4629 9.59375C31.3193 9.49766 31.2073 9.36114 31.1413 9.20145C31.0752 9.04177 31.058 8.86608 31.0918 8.69661C31.1256 8.52714 31.2089 8.37149 31.3311 8.24934C31.4533 8.12719 31.6091 8.04403 31.7786 8.01036C31.948 7.97669 32.1237 7.99403 32.2834 8.06019C32.443 8.12634 32.5794 8.23835 32.6754 8.38204C32.7714 8.52573 32.8227 8.69466 32.8227 8.86746C32.8225 9.09928 32.7303 9.32155 32.5663 9.48541C32.4024 9.64927 32.18 9.74132 31.9482 9.74132ZM31.9482 8.60172C31.8957 8.60184 31.8443 8.61753 31.8007 8.6468C31.7571 8.67607 31.7231 8.71762 31.7031 8.76619C31.6831 8.81476 31.6779 8.86817 31.6882 8.91968C31.6986 8.97119 31.7239 9.01848 31.7611 9.05559C31.7983 9.09269 31.8457 9.11794 31.8972 9.12814C31.9487 9.13835 32.0021 9.13305 32.0506 9.11292C32.0992 9.09279 32.1406 9.05873 32.1698 9.01504C32.199 8.97135 32.2146 8.92 32.2146 8.86746C32.2146 8.83251 32.2077 8.79791 32.1943 8.76563C32.1809 8.73335 32.1612 8.70402 32.1365 8.67934C32.1118 8.65465 32.0824 8.63509 32.0501 8.62177C32.0178 8.60845 31.9832 8.60164 31.9482 8.60172Z" fill="#A688CE"/>
<path d="M14.3107 19.8734H6.446C6.28472 19.8734 6.13004 19.8093 6.016 19.6952C5.90196 19.5812 5.83789 19.4265 5.83789 19.2653V13.0017C5.83789 12.8405 5.90196 12.6858 6.016 12.5717C6.13004 12.4577 6.28472 12.3936 6.446 12.3936H14.3107C14.4719 12.3936 14.6266 12.4577 14.7407 12.5717C14.8547 12.6858 14.9188 12.8405 14.9188 13.0017V19.2653C14.9188 19.4265 14.8547 19.5812 14.7407 19.6952C14.6266 19.8093 14.4719 19.8734 14.3107 19.8734ZM7.05654 18.6571H13.7025V13.6098H7.05411L7.05654 18.6571Z" fill="#A688CE"/>
</svg>
