<?xml version="1.0" encoding="utf-8"?>
<!-- Generator: Adobe Illustrator 23.1.0, SVG Export Plug-In . SVG Version: 6.00 Build 0)  -->
<svg version="1.1" id="Layer_1" xmlns="http://www.w3.org/2000/svg" xmlns:xlink="http://www.w3.org/1999/xlink" x="0px" y="0px"
	 viewBox="0 0 1000 1031.18" style="enable-background:new 0 0 1000 1031.18;" xml:space="preserve">
<style type="text/css">
	.st0{fill-rule:evenodd;clip-rule:evenodd;fill:#231F20;}
	.st1{fill-rule:evenodd;clip-rule:evenodd;fill:#0F0F0F;}
	.st2{fill-rule:evenodd;clip-rule:evenodd;fill:#917A2F;}
</style>
<polygon class="st0" points="482.3,185.48 482.56,186.48 482.56,184.5 "/>
<polygon class="st0" points="482.3,186.48 482.56,185.49 482.3,184.5 "/>
<path class="st1" d="M177.12,519.89c0,11.09-8.99,20.08-20.08,20.08c-11.09,0-20.08-8.99-20.08-20.08
	c0-11.09,8.99-20.08,20.08-20.08C168.14,499.81,177.12,508.8,177.12,519.89z"/>
<path class="st1" d="M307.62,349.48c0,11.09-8.99,20.08-20.08,20.08c-11.09,0-20.08-8.99-20.08-20.08
	c0-11.09,8.99-20.08,20.08-20.08C298.63,329.4,307.62,338.39,307.62,349.48z"/>
<path class="st1" d="M751.48,628.84l15.07-24.76l11.8,2.22l-4.96,26.64L751.48,628.84L751.48,628.84z M765.09,677.59l-38.9-7.28
	l15.07-24.76l28.79,5.36L765.09,677.59L765.09,677.59z M757.73,717.22l-54.01-10.05l12.53-20.59l45.58,8.5L757.73,717.22
	L757.73,717.22z M667.89,537.05h-21.32l9.85-48.95h11.48V537.05L667.89,537.05z M667.89,619.02h-37.82l9.85-48.95h27.97V619.02
	L667.89,619.02z M667.89,691.81H615.4l8.16-40.69h44.33V691.81L667.89,691.81z M499.78,691.81v-65.12h70.93l13.09,65.12H499.78
	L499.78,691.81z M499.78,496.92h44.79l15.77,78.34h-60.55V496.92L499.78,496.92z M499.78,365.7h18.38l15.77,78.34h-34.14V365.7
	L499.78,365.7z M465.07,444.03h-34.15l15.77-78.34h18.38V444.03L465.07,444.03z M465.07,575.25h-60.56l15.77-78.34h44.79V575.25
	L465.07,575.25z M465.07,691.81h-84.02l13.09-65.12h70.93V691.81L465.07,691.81z M296.96,691.81v-40.69h44.33l8.16,40.69H296.96
	L296.96,691.81z M296.96,570.07h27.96l9.85,48.95h-37.81V570.07L296.96,570.07z M296.96,488.09h11.47l9.85,48.95h-21.32V488.09
	L296.96,488.09z M207.12,717.22l-4.1-22.15l45.58-8.5l12.52,20.59L207.12,717.22L207.12,717.22z M194.79,650.92l28.79-5.36
	l15.07,24.76l-38.9,7.28L194.79,650.92L194.79,650.92z M191.45,632.93l-4.95-26.64l11.8-2.22l15.07,24.76L191.45,632.93
	L191.45,632.93z M696.64,681.03L674.6,362.26l-69.05,282.05L482.69,186.48l-0.26-0.99l-0.26,0.99L359.29,644.31l-69.05-282.05
	L268.2,681.03L166.86,538.54l27.9,189.53h575.34l27.89-189.53L696.64,681.03z"/>
<path class="st1" d="M787.73,519.89c0,11.09,8.99,20.08,20.07,20.08c11.09,0,20.08-8.99,20.08-20.08c0-11.09-8.99-20.08-20.08-20.08
	C796.72,499.81,787.73,508.8,787.73,519.89z"/>
<path class="st1" d="M657.24,349.48c0,11.09,8.99,20.08,20.08,20.08c11.09,0,20.08-8.99,20.08-20.08c0-11.09-8.99-20.08-20.08-20.08
	C666.22,329.4,657.24,338.39,657.24,349.48z"/>
<path class="st2" d="M509.07,132.55c0,14.33-11.62,25.95-25.94,25.95c-14.33,0-25.95-11.62-25.95-25.95
	c0-14.33,11.62-25.94,25.95-25.94C497.45,106.61,509.07,118.22,509.07,132.55z"/>
<path class="st2" d="M445.9,170.25c-0.56,0-1.13-0.14-1.64-0.44c-13.28-7.66-21.53-21.93-21.53-37.25
	c0-15.32,8.25-29.59,21.53-37.24c1.57-0.91,3.6-0.37,4.51,1.21c0.91,1.58,0.37,3.6-1.21,4.51c-11.24,6.48-18.22,18.56-18.22,31.52
	c0,12.96,6.99,25.04,18.22,31.52c1.58,0.91,2.12,2.93,1.21,4.52C448.16,169.66,447.05,170.25,445.9,170.25z"/>
<path class="st2" d="M418.06,188.73c-0.56,0-1.13-0.14-1.65-0.45c-19.87-11.45-32.22-32.8-32.22-55.72
	c0-22.91,12.34-44.27,32.22-55.72c1.57-0.91,3.6-0.37,4.52,1.21c0.91,1.59,0.37,3.6-1.22,4.52c-17.83,10.28-28.9,29.43-28.9,50
	c0,20.56,11.07,39.72,28.9,50c1.58,0.91,2.12,2.93,1.22,4.51C420.32,188.14,419.21,188.73,418.06,188.73z"/>
<path class="st2" d="M391.81,212.73c-0.56,0-1.13-0.14-1.65-0.45c-28.43-16.38-46.09-46.93-46.09-79.72
	c0-32.78,17.66-63.33,46.09-79.72c1.57-0.91,3.6-0.37,4.51,1.21c0.91,1.58,0.37,3.6-1.21,4.51c-26.39,15.22-42.78,43.57-42.78,73.99
	c0,30.43,16.39,58.78,42.78,73.99c1.58,0.91,2.12,2.93,1.21,4.52C394.07,212.13,392.96,212.73,391.81,212.73z"/>
<path class="st2" d="M363.45,229.38c-0.56,0-1.13-0.14-1.65-0.45c-34.37-19.81-55.71-56.73-55.71-96.37
	c0-39.63,21.34-76.55,55.71-96.37c1.58-0.91,3.6-0.37,4.51,1.21c0.91,1.58,0.37,3.6-1.21,4.51c-32.32,18.63-52.4,53.37-52.4,90.64
	c0,37.28,20.08,72.01,52.4,90.65c1.58,0.91,2.12,2.93,1.21,4.51C365.7,228.79,364.59,229.38,363.45,229.38z"/>
<path class="st2" d="M336.07,249.45c-0.56,0-1.13-0.14-1.65-0.45c-41.52-23.93-67.32-68.55-67.32-116.44
	c0-47.89,25.8-92.51,67.32-116.45c1.58-0.91,3.6-0.37,4.51,1.21c0.91,1.58,0.37,3.6-1.21,4.51
	c-39.48,22.76-64.01,65.18-64.01,110.72c0,45.54,24.52,87.96,64.01,110.72c1.58,0.91,2.12,2.93,1.21,4.52
	C338.32,248.86,337.21,249.45,336.07,249.45z"/>
<path class="st2" d="M518.95,170.25c-1.14,0-2.25-0.59-2.86-1.65c-0.91-1.59-0.37-3.61,1.21-4.52
	c11.24-6.48,18.22-18.56,18.22-31.52c0-12.96-6.98-25.04-18.22-31.52c-1.58-0.91-2.13-2.93-1.21-4.51c0.9-1.58,2.93-2.13,4.51-1.21
	c13.29,7.66,21.53,21.93,21.53,37.24c0,15.32-8.24,29.59-21.53,37.25C520.08,170.12,519.51,170.25,518.95,170.25z"/>
<path class="st2" d="M546.79,188.73c-1.14,0-2.25-0.59-2.86-1.65c-0.91-1.58-0.37-3.61,1.21-4.51c17.83-10.28,28.9-29.44,28.9-50
	c0-20.56-11.08-39.72-28.9-50c-1.58-0.92-2.13-2.93-1.21-4.52c0.9-1.58,2.93-2.13,4.51-1.21c19.87,11.46,32.22,32.81,32.22,55.72
	c0,22.91-12.34,44.27-32.22,55.72C547.92,188.59,547.35,188.73,546.79,188.73z"/>
<path class="st2" d="M573.04,212.73c-1.14,0-2.26-0.59-2.86-1.65c-0.91-1.59-0.37-3.61,1.21-4.52
	c26.38-15.21,42.78-43.56,42.78-73.99c0-30.43-16.39-58.78-42.78-73.99c-1.59-0.91-2.13-2.93-1.21-4.51
	c0.9-1.58,2.93-2.13,4.51-1.21c28.43,16.39,46.09,46.94,46.09,79.72c0,32.79-17.66,63.33-46.09,79.72
	C574.16,212.59,573.59,212.73,573.04,212.73z"/>
<path class="st2" d="M601.41,229.38c-1.14,0-2.25-0.59-2.86-1.65c-0.91-1.58-0.37-3.61,1.21-4.51c32.32-18.64,52.4-53.37,52.4-90.65
	c0-37.27-20.08-72.01-52.4-90.64c-1.59-0.91-2.13-2.93-1.21-4.51c0.9-1.58,2.93-2.13,4.51-1.21c34.37,19.81,55.72,56.74,55.72,96.37
	c0,39.64-21.34,76.56-55.72,96.37C602.53,229.24,601.96,229.38,601.41,229.38z"/>
<path class="st2" d="M628.79,249.45c-1.15,0-2.26-0.59-2.87-1.65c-0.91-1.58-0.37-3.61,1.22-4.52c39.47-22.76,64-65.19,64-110.72
	c0-45.53-24.53-87.96-64-110.72c-1.59-0.91-2.13-2.93-1.22-4.51c0.9-1.58,2.93-2.13,4.51-1.21c41.52,23.94,67.32,68.56,67.32,116.45
	c0,47.89-25.8,92.51-67.32,116.44C629.92,249.31,629.35,249.45,628.79,249.45z"/>
<polygon class="st1" points="704.64,836.22 756.92,836.61 756.97,980.14 810.71,980.13 810.73,836.63 862.86,836.47 862.82,796.78 
	704.71,796.81 "/>
<polygon class="st1" points="529.1,836.55 581.42,836.55 581.39,979.85 635.13,980.09 635.14,836.7 686.86,836.52 687.32,797.08 
	529.26,796.77 "/>
<path class="st1" d="M493.37,959.08c2.3-5.14,6.69-8.67,10.16-14.09c3.2-4.99,5.78-10.02,8-15.68c14.6-37.13,7.47-86.65-19.42-112
	c-38.58-36.37-107.64-29.95-137.59,7.06c-32.27,39.86-25.96,112.91,11.25,140.53c19.61,14.55,45.05,22.15,75.88,17.53
	c12.2-1.83,8.69-2.55,17.55,3.67c5.32,3.74,9.66,6.78,14.66,10.16c8.75,5.91,20.34,14.79,29.26,19.4
	c3.52-2.42,25.35-27.97,27.4-32.48C520.79,978.43,501.39,962.51,493.37,959.08z M435.28,943.88c-31.8,7.27-43.96-19.78-46.2-47.1
	c-2.39-29.23,3.96-58.31,28.74-63.84c32.18-7.18,43.69,19.52,45.56,47.54C465.24,908.46,459.5,938.34,435.28,943.88z"/>
<path class="st1" d="M285.6,891.53c4.03-4.66,25.63-11.42,26.1-42.65c0.33-21.8-10.86-35.66-25.08-43.54
	c-17.99-9.96-37.45-8.56-60.07-8.56c-22.15,0-47.89-1.2-69.61,0.21l-0.21,182.91l52.28,0.24v-68.79
	c18.05-2.56,42.2-2.28,45.58,14.58c2.21,11.04-2.19,49.29,6.24,54.21l49.58-0.02C304.39,944.51,316.81,906.16,285.6,891.53z
	 M253.4,867.44c-8.01,7.96-32.27,6.3-44.35,5.69l-0.04-38.43C273.54,826.88,258.14,862.73,253.4,867.44z"/>
</svg>
