<svg width="35" height="35" viewBox="0 0 35 35" fill="none" xmlns="http://www.w3.org/2000/svg">
<g clip-path="url(#clip0)">
<path d="M34.4873 30.1389H33.9041V19.3859L34.2174 19.5799C34.3015 19.6319 34.3947 19.6568 34.4868 19.6568C34.6584 19.6568 34.8262 19.5706 34.9232 19.4139C35.0722 19.1731 34.9979 18.8571 34.7571 18.7081L23.2496 11.5843C23.0843 11.482 22.8752 11.482 22.7099 11.5843L16.3687 15.5098V11.437H17.5C17.7831 11.437 18.0127 11.2075 18.0127 10.9243C18.0127 10.6412 17.7831 10.4116 17.5 10.4116H13.6641C13.381 10.4116 13.1515 10.6412 13.1515 10.9243C13.1515 12.2357 12.7328 13.4512 12.0223 14.4442C11.3032 13.4361 10.889 12.2114 10.889 10.9243V8.73239C10.889 8.44925 10.6594 8.21969 10.3763 8.21969C10.0931 8.21969 9.86357 8.44925 9.86357 8.73239V10.4116H7.05312V7.05321H8.73229C9.01544 7.05321 9.24499 6.82366 9.24499 6.54052V4.34857C9.24499 4.06543 9.01544 3.83588 8.73229 3.83588C8.44915 3.83588 8.2196 4.06543 8.2196 4.34857V6.02775H5.95718V4.34857C5.95718 4.06543 5.72763 3.83588 5.44448 3.83588C5.16134 3.83588 4.93179 4.06543 4.93179 4.34857V6.02775H2.6693V4.34857C2.6693 4.06543 2.43975 3.83588 2.1566 3.83588C1.87346 3.83588 1.64391 4.06543 1.64391 4.34857V6.54045C1.64391 6.82359 1.87346 7.05314 2.1566 7.05314H3.83578V10.4116H1.02539V8.73225C1.02539 8.44911 0.79584 8.21956 0.512695 8.21956C0.229551 8.21956 0 8.44925 0 8.73239V10.9243C0 13.6612 1.55921 16.0404 3.83585 17.2212V30.1389H3.25261C2.96946 30.1389 2.73991 30.3684 2.73991 30.6515C2.73991 30.9347 2.96946 31.1642 3.25261 31.1642H34.4873C34.7704 31.1642 35 30.9347 35 30.6515C35 30.3684 34.7704 30.1389 34.4873 30.1389ZM22.9798 12.6233L32.8787 18.7511V25.755H31.1641V19.692C31.1641 19.4088 30.9346 19.1793 30.6515 19.1793H15.3081C15.025 19.1793 14.7954 19.4088 14.7954 19.692V25.755H13.0809V18.7511L22.9798 12.6233ZM30.1388 20.2047V21.3711H24.5884V20.2047H30.1388ZM23.563 20.2047V25.755H22.3965V20.2047H23.563ZM15.8208 21.3711V20.2047H21.3711V21.3711H15.8208ZM21.3711 22.3965V25.755H15.8208V22.3965H21.3711ZM14.1585 11.437H15.3434V16.1446L14.6887 16.5498C13.935 16.2462 13.2638 15.7986 12.7037 15.2453C13.529 14.1754 14.056 12.864 14.1585 11.437ZM7.05312 11.4369H9.88299V11.437C9.98573 12.8396 10.5068 14.1589 11.3393 15.2429C10.2443 16.321 8.74275 16.9873 7.08839 16.9873C7.07656 16.9873 7.06487 16.9869 7.05312 16.9868V11.4369ZM3.83585 16.039C2.2832 15.0481 1.20996 13.3702 1.04727 11.437H3.83585V16.039ZM6.02772 30.1389H4.86124V26.7804H6.02772V30.1389V30.1389ZM6.02772 25.755H4.86124V17.654C5.23722 17.7787 5.627 17.873 6.02772 17.9334V25.755V25.755ZM6.02772 16.8944C5.62379 16.8228 5.23353 16.7112 4.86124 16.5636V7.05321H6.02772V16.8944V16.8944ZM12.0555 30.1388H7.05312V18.0122C7.06487 18.0123 7.07663 18.0127 7.08839 18.0127C9.00368 18.0127 10.7438 17.2489 12.0207 16.0101C12.4991 16.4761 13.0454 16.8765 13.6469 17.1948L11.2024 18.708C10.9616 18.857 10.8873 19.1731 11.0363 19.4138C11.1854 19.6545 11.5013 19.729 11.7422 19.5799L12.0555 19.3859V30.1388ZM32.8787 30.1389H13.0809V26.7804H27.3634C27.6466 26.7804 27.8761 26.5509 27.8761 26.2677C27.8761 25.9846 27.6466 25.755 27.3634 25.755H24.5885V22.3966H30.1388V25.755H29.5554C29.2723 25.755 29.0428 25.9846 29.0428 26.2677C29.0428 26.5509 29.2723 26.7804 29.5554 26.7804H32.8787V30.1389V30.1389Z" fill="white"/>
</g>
<defs>
<clipPath id="clip0">
<rect width="35" height="35" fill="white"/>
</clipPath>
</defs>
</svg>
