<svg width="35" height="35" viewBox="0 0 35 35" fill="none" xmlns="http://www.w3.org/2000/svg">
<g clip-path="url(#clip0)">
<path d="M34.7607 15.2852L13.4326 2.972C12.8202 2.61963 12.0931 2.52443 11.4106 2.70726C10.7282 2.89009 10.146 3.33603 9.7918 3.94735L7.33633 8.20012L5.70172 11.031C5.34915 11.6436 5.25392 12.3711 5.43691 13.0538C5.61991 13.7365 6.06619 14.3188 6.67789 14.6729L13.9904 18.8945L12.8532 20.8338C12.7019 21.0904 12.4864 21.3033 12.2279 21.4514C11.9694 21.5995 11.6768 21.6777 11.3788 21.6784H7.10938V18.4245C7.10938 18.2976 7.05896 18.1759 6.96922 18.0861C6.87948 17.9964 6.75777 17.946 6.63086 17.946H4.0332V17.3286C4.03255 16.7667 3.80908 16.2281 3.4118 15.8308C3.01453 15.4335 2.47589 15.2101 1.91406 15.2094H0.478516C0.415666 15.2094 0.353426 15.2217 0.295353 15.2458C0.237281 15.2698 0.184515 15.3051 0.140074 15.3495C0.0956325 15.3939 0.0603866 15.4467 0.0363517 15.5048C0.0123168 15.5628 -3.58667e-05 15.6251 7.82216e-08 15.6879V31.9074C-3.58667e-05 31.9703 0.0123168 32.0325 0.0363517 32.0906C0.0603866 32.1487 0.0956325 32.2014 0.140074 32.2459C0.184515 32.2903 0.237281 32.3256 0.295353 32.3496C0.353426 32.3736 0.415666 32.386 0.478516 32.3859H1.91406C2.47589 32.3853 3.01453 32.1618 3.4118 31.7645C3.80908 31.3673 4.03255 30.8286 4.0332 30.2668V28.7468H6.63086C6.75777 28.7468 6.87948 28.6963 6.96922 28.6066C7.05896 28.5169 7.10938 28.3952 7.10938 28.2682V25.9167H11.3788C12.4154 25.9145 13.4336 25.6424 14.3332 25.1272C15.2327 24.6121 15.9826 23.8716 16.5091 22.9786L17.6611 21.0142L21.6694 23.3283C22.0729 23.5625 22.5311 23.686 22.9977 23.6865C23.2323 23.6864 23.4658 23.6555 23.6923 23.5947C24.1275 23.4789 24.5261 23.2541 24.8503 22.9414C25.3746 23.1847 25.9455 23.311 26.5234 23.3116C26.8776 23.3114 27.2303 23.2647 27.5723 23.1727C28.4448 22.9409 29.213 22.4204 29.7519 21.6962L30.7319 22.2619C30.7863 22.2934 30.8464 22.3138 30.9088 22.322C30.9711 22.3303 31.0344 22.3261 31.0952 22.3098C31.1559 22.2936 31.2128 22.2655 31.2626 22.2272C31.3125 22.1889 31.3543 22.1411 31.3857 22.0866L34.9349 15.9395C34.9665 15.8851 34.987 15.825 34.9953 15.7627C35.0036 15.7004 34.9995 15.637 34.9834 15.5763C34.9672 15.5155 34.9392 15.4585 34.901 15.4086C34.8628 15.3586 34.8151 15.3167 34.7607 15.2852V15.2852ZM3.07617 30.2668C3.07588 30.5749 2.95335 30.8703 2.73548 31.0882C2.5176 31.3061 2.22218 31.4286 1.91406 31.4289H0.957031V16.1665H1.91406C2.22218 16.1667 2.5176 16.2893 2.73548 16.5071C2.95335 16.725 3.07588 17.0204 3.07617 17.3286V30.2668ZM6.15234 27.7897H4.0332V18.903H6.15234V27.7897ZM15.6833 22.4943C15.2416 23.2437 14.6125 23.8651 13.8577 24.2974C13.103 24.7297 12.2486 24.9581 11.3788 24.9599H7.10938V22.6357H11.3788C11.8436 22.6347 12.3 22.5127 12.7033 22.2817C13.1066 22.0507 13.4427 21.7187 13.6787 21.3183L14.8203 19.3736L16.8334 20.5357L15.6833 22.4943ZM22.1484 22.4995L7.15641 13.8441C6.76423 13.6172 6.4781 13.2439 6.36081 12.8062C6.24352 12.3685 6.30465 11.9022 6.53078 11.5095L7.92531 9.09317L21.6647 17.0256L25.877 19.4575L24.4822 21.875L24.4803 21.878C24.4439 21.9398 24.4037 21.9991 24.3597 22.0557V22.0577C24.1074 22.3869 23.744 22.6133 23.3372 22.6945C22.9304 22.7758 22.5079 22.7065 22.1484 22.4995V22.4995ZM27.3265 22.2482C26.6997 22.4177 26.0352 22.3828 25.4297 22.1484L26.7075 19.9355L28.9204 21.213C28.5128 21.7191 27.9542 22.0818 27.326 22.2482H27.3265ZM30.7978 21.1928L27.7033 19.4061L26.7695 18.8672L16.2047 12.7679L8.40438 8.26438L10.6206 4.42586C10.8476 4.03378 11.221 3.74777 11.6586 3.63058C12.0963 3.5134 12.5626 3.57461 12.9552 3.80079L33.8677 15.875L30.7978 21.1928Z" fill="white"/>
<path d="M28.7534 18.5918C29.032 18.7537 29.3485 18.839 29.6708 18.8393C29.8325 18.8391 29.9936 18.8178 30.1498 18.7758C30.5611 18.6657 30.9214 18.4163 31.1694 18.0703C31.4175 17.7243 31.5378 17.3029 31.51 16.8781C31.4822 16.4533 31.308 16.0512 31.017 15.7404C30.726 15.4297 30.3363 15.2294 29.9142 15.1738C29.4921 15.1182 29.0637 15.2106 28.7022 15.4354C28.3406 15.6602 28.0681 16.0034 27.9312 16.4065C27.7943 16.8096 27.8014 17.2478 27.9514 17.6462C28.1013 18.0447 28.3847 18.3789 28.7534 18.5918V18.5918ZM28.909 16.5566C28.9669 16.4563 29.044 16.3683 29.1361 16.2979C29.2281 16.2275 29.3332 16.1761 29.4452 16.1465C29.5201 16.1264 29.5973 16.1162 29.6749 16.1161C29.8695 16.1161 30.0586 16.1804 30.213 16.2989C30.3674 16.4174 30.4783 16.5835 30.5287 16.7715C30.579 16.9594 30.5659 17.1588 30.4914 17.3386C30.4169 17.5183 30.2852 17.6685 30.1166 17.7658C29.9481 17.8631 29.7522 17.902 29.5592 17.8766C29.3663 17.8511 29.1871 17.7628 29.0495 17.6251C28.912 17.4875 28.8236 17.3083 28.7983 17.1154C28.7729 16.9224 28.8119 16.7265 28.9092 16.558L28.909 16.5566Z" fill="white"/>
<path d="M12.4414 13.7457L8.52033 11.4814C8.46589 11.4494 8.40567 11.4286 8.34314 11.4201C8.28062 11.4115 8.21702 11.4154 8.15601 11.4315C8.095 11.4477 8.03778 11.4757 7.98765 11.514C7.93752 11.5524 7.89547 11.6003 7.86392 11.6549C7.83236 11.7096 7.81193 11.7699 7.8038 11.8325C7.79566 11.8951 7.79999 11.9586 7.81652 12.0195C7.83306 12.0804 7.86147 12.1375 7.90014 12.1873C7.9388 12.2372 7.98695 12.279 8.04181 12.3101L11.964 14.5742C12.0735 14.6314 12.2008 14.6441 12.3194 14.6096C12.438 14.5751 12.5387 14.4961 12.6003 14.3891C12.662 14.2821 12.6799 14.1553 12.6503 14.0354C12.6207 13.9155 12.5458 13.8117 12.4414 13.7457V13.7457Z" fill="white"/>
</g>
<defs>
<clipPath id="clip0">
<rect width="35" height="35" fill="white"/>
</clipPath>
</defs>
</svg>
