<svg width="35" height="35" viewBox="0 0 35 35" fill="none" xmlns="http://www.w3.org/2000/svg">
<g clip-path="url(#clip0)">
<path d="M33.3458 31.0632H25.6944V20.0784H25.7483C26.5221 20.0784 27.1516 19.449 27.1516 18.6752V17.2211C27.1516 16.4473 26.5221 15.8178 25.7483 15.8178H25.6944V3.61762H26.1585C26.9322 3.61762 27.5617 2.98809 27.5617 2.21433V1.51228C27.5617 0.738523 26.9322 0.10907 26.1585 0.10907H8.84153C8.06777 0.10907 7.43825 0.738591 7.43825 1.51228V2.2144C7.43825 2.98816 8.06777 3.61768 8.84153 3.61768H9.30556V15.8179H9.25169C8.47793 15.8179 7.84841 16.4474 7.84841 17.2211V18.6752C7.84841 19.449 8.47793 20.0784 9.25169 20.0784H9.30556V31.0632H6.15234C5.86913 31.0632 5.63965 31.2928 5.63965 31.5759C5.63965 31.8591 5.86913 32.0886 6.15234 32.0886H33.3458C33.6925 32.0886 33.9746 32.3707 33.9746 32.7175V33.8655H1.02539V32.7175C1.02539 32.3707 1.30751 32.0886 1.65423 32.0886H4.10156C4.38478 32.0886 4.61426 31.8591 4.61426 31.5759C4.61426 31.2928 4.38478 31.0632 4.10156 31.0632H1.65423C0.742109 31.0632 0 31.8053 0 32.7174V34.3782C0 34.6613 0.229482 34.8909 0.512695 34.8909H34.4873C34.7705 34.8909 35 34.6613 35 34.3782V32.7174C35 31.8053 34.258 31.0632 33.3458 31.0632ZM10.3309 24.1682H16.9873V26.9734H10.3309V24.1682ZM19.8283 20.0784V23.1428H15.1718V20.0784H19.8283ZM24.6691 26.9733H18.0127V24.1682H24.6691V26.9733ZM19.8283 27.9987V31.0632H15.1718V27.9987H19.8283ZM20.8536 27.9987H24.6691V31.0632H20.8536V27.9987ZM24.6691 23.1428H20.8536V20.0784H24.6691V23.1428ZM24.6691 15.8179H19.7393V7.99118C19.7393 6.93291 19.0011 6.0443 18.0127 5.81181V3.61762H24.6691V15.8179ZM17.5 6.77732C18.1694 6.77732 18.7139 7.32187 18.7139 7.99125C18.7139 8.66062 18.1694 9.20511 17.5 9.20511C16.8306 9.20511 16.2861 8.66056 16.2861 7.99125C16.2861 7.32194 16.8306 6.77732 17.5 6.77732V6.77732ZM16.2861 9.87141C16.6361 10.0982 17.0528 10.2304 17.5 10.2304C17.9472 10.2304 18.3639 10.0982 18.7139 9.87141V15.8178H16.2861V9.87141ZM26.5364 1.51228V2.2144C26.5364 2.42276 26.3669 2.59229 26.1585 2.59229H18.0127V1.13439H26.1585C26.3669 1.13439 26.5364 1.30392 26.5364 1.51228V1.51228ZM10.3309 3.61762H12.6465C12.9297 3.61762 13.1592 3.38806 13.1592 3.10492C13.1592 2.82178 12.9297 2.59222 12.6465 2.59222H8.84153C8.63311 2.59222 8.46364 2.42269 8.46364 2.21433V1.51228C8.46364 1.30392 8.63311 1.13446 8.84153 1.13446H16.9873V2.59229H14.6973C14.4141 2.59229 14.1846 2.82184 14.1846 3.10499C14.1846 3.38813 14.4141 3.61768 14.6973 3.61768H16.9873V5.81188C15.999 6.04437 15.2607 6.93298 15.2607 7.99125V15.8179H10.3309V3.61762ZM8.8738 18.6751V17.2211C8.8738 17.0127 9.04326 16.8432 9.25169 16.8432H25.7483C25.9567 16.8432 26.1262 17.0127 26.1262 17.2211V18.6751C26.1262 18.8835 25.9567 19.053 25.7483 19.053H9.25169C9.04326 19.053 8.8738 18.8835 8.8738 18.6751ZM14.1464 20.0784V23.1428H10.3309V20.0784H14.1464ZM10.3309 27.9987H14.1464V31.0632H10.3309V27.9987Z" fill="white"/>
</g>
<defs>
<clipPath id="clip0">
<rect width="35" height="35" fill="white"/>
</clipPath>
</defs>
</svg>
