<svg width="35" height="35" viewBox="0 0 35 35" fill="none" xmlns="http://www.w3.org/2000/svg">
<path d="M22.8449 13.3393L18.3 5.46715C18.1331 5.17799 17.834 5.00531 17.5001 5.00531C17.1661 5.00531 16.8671 5.17799 16.7001 5.46715L12.1551 13.3393C11.9882 13.6284 11.9882 13.9738 12.1551 14.2629C12.322 14.5521 12.6211 14.7248 12.955 14.7248H22.0451C22.379 14.7248 22.678 14.5521 22.845 14.2629C23.0119 13.9738 23.0119 13.6284 22.8449 13.3393ZM13.1312 13.6995L17.5001 6.13242L21.8689 13.6995H13.1312Z" fill="white"/>
<path d="M18.5105 10.3464C18.4139 10.2151 18.2606 10.1376 18.0975 10.1376H17.5992L17.9895 8.8848C18.0737 8.61444 17.9228 8.32705 17.6525 8.24283C17.3822 8.15875 17.0948 8.30948 17.0105 8.57985L16.413 10.4977C16.3645 10.6534 16.3929 10.8228 16.4895 10.9541C16.5861 11.0854 16.7394 11.1629 16.9025 11.1629H17.4008L17.0106 12.4157C16.9263 12.6861 17.0772 12.9734 17.3476 13.0577C17.3984 13.0735 17.4497 13.081 17.5002 13.081C17.7187 13.081 17.9211 12.9402 17.9895 12.7207L18.5871 10.8028C18.6355 10.6471 18.6071 10.4777 18.5105 10.3464Z" fill="white"/>
<path d="M25.7198 0H9.28044C7.78912 0 6.57581 1.21331 6.57581 2.70457V24.6237C6.57581 26.1151 7.78912 27.3283 9.28044 27.3283H13.1516V34.4873C13.1516 34.7704 13.3811 35 13.6643 35C13.9474 35 14.177 34.7704 14.177 34.4873V27.3283H15.3434V34.4873C15.3434 34.7704 15.573 35 15.8561 35C16.1393 35 16.3688 34.7704 16.3688 34.4873V27.3283H18.6313V34.4873C18.6313 34.7704 18.8609 35 19.144 35C19.4272 35 19.6567 34.7704 19.6567 34.4873V27.3283H20.8232V34.4873C20.8232 34.7704 21.0527 35 21.3359 35C21.619 35 21.8486 34.7704 21.8486 34.4873V27.3283H25.7197C27.211 27.3283 28.4244 26.115 28.4244 24.6237V2.70457C28.4244 1.21331 27.2111 0 25.7198 0ZM25.7198 26.3029H9.28044C8.35452 26.3029 7.6012 25.5496 7.6012 24.6237V2.70457C7.6012 1.77864 8.35452 1.02539 9.28044 1.02539H25.7197C26.6456 1.02539 27.399 1.77871 27.399 2.70457V24.6237H27.399C27.399 25.5497 26.6457 26.3029 25.7198 26.3029Z" fill="white"/>
<path d="M25.1717 2.73993H9.82837C9.54522 2.73993 9.31567 2.96948 9.31567 3.25262V20.2401C9.31567 20.5232 9.54522 20.7528 9.82837 20.7528C10.1115 20.7528 10.3411 20.5232 10.3411 20.2401V3.76532H24.659V4.89667C24.659 5.17981 24.8886 5.40936 25.1717 5.40936C25.4548 5.40936 25.6844 5.17981 25.6844 4.89667V3.25262C25.6844 2.96948 25.4548 2.73993 25.1717 2.73993Z" fill="white"/>
<path d="M22.4319 16.4393H12.5684C12.2852 16.4393 12.0557 16.6689 12.0557 16.952C12.0557 17.2352 12.2852 17.4647 12.5684 17.4647H22.4319C22.7151 17.4647 22.9446 17.2352 22.9446 16.952C22.9446 16.6689 22.7151 16.4393 22.4319 16.4393Z" fill="white"/>
<path d="M22.4319 18.6312H12.5684C12.2852 18.6312 12.0557 18.8608 12.0557 19.1439C12.0557 19.4271 12.2852 19.6566 12.5684 19.6566H22.4319C22.7151 19.6566 22.9446 19.4271 22.9446 19.1439C22.9446 18.8608 22.7151 18.6312 22.4319 18.6312Z" fill="white"/>
<path d="M22.4319 20.8231H12.5684C12.2852 20.8231 12.0557 21.0527 12.0557 21.3358C12.0557 21.619 12.2852 21.8485 12.5684 21.8485H22.4319C22.7151 21.8485 22.9446 21.619 22.9446 21.3358C22.9446 21.0527 22.7151 20.8231 22.4319 20.8231Z" fill="white"/>
<path d="M25.6845 12.1398V7.08862C25.6845 6.80548 25.4549 6.57593 25.1718 6.57593C24.8886 6.57593 24.6591 6.80548 24.6591 7.08862V12.1398C24.0228 12.3543 23.5631 12.9564 23.5631 13.6642C23.5631 14.372 24.0228 14.9739 24.6591 15.1886V23.5631H10.3411V22.432C10.3411 22.1489 10.1115 21.9193 9.82837 21.9193C9.54522 21.9193 9.31567 22.1489 9.31567 22.432V24.0758C9.31567 24.3589 9.54522 24.5885 9.82837 24.5885H25.1717C25.4548 24.5885 25.6844 24.3589 25.6844 24.0758V15.1886C26.3208 14.974 26.7804 14.372 26.7804 13.6642C26.7804 12.9564 26.3208 12.3544 25.6845 12.1398ZM25.1732 14.2474C25.1727 14.2474 25.1722 14.2473 25.1717 14.2473C25.1712 14.2473 25.1707 14.2474 25.1702 14.2474C24.8492 14.2465 24.5885 13.9853 24.5885 13.6642C24.5885 13.3434 24.8489 13.0823 25.1694 13.081C25.1702 13.081 25.1709 13.0811 25.1718 13.0811C25.1726 13.0811 25.1733 13.081 25.1741 13.081C25.4946 13.0823 25.7551 13.3433 25.7551 13.6642C25.755 13.9853 25.4941 14.2465 25.1732 14.2474Z" fill="white"/>
</svg>
