<svg width="35" height="35" viewBox="0 0 35 35" fill="none" xmlns="http://www.w3.org/2000/svg">
<g clip-path="url(#clip0)">
<path d="M24.3368 12.8663C24.0973 12.5801 23.6717 12.5387 23.3811 12.7752C23.0888 13.013 23.0444 13.443 23.2817 13.7358C23.2898 13.7459 23.2998 13.7575 23.3085 13.7671C23.4435 13.9155 23.6287 13.9909 23.8145 13.9909C23.9786 13.9909 24.1432 13.9321 24.2742 13.8131C24.5473 13.5648 24.5731 13.146 24.3368 12.8663Z" fill="white"/>
<path d="M18.9379 26.4186C19.208 26.4356 19.4761 26.444 19.7425 26.444C22.7991 26.444 25.581 25.332 27.6445 23.2686C28.1874 22.7257 28.7189 21.647 28.1673 19.5917C27.7879 18.1781 26.9499 16.5023 25.7439 14.7454C25.5302 14.4342 25.1047 14.355 24.7935 14.5688C24.4821 14.7824 24.4031 15.208 24.6167 15.5192C25.736 17.1497 26.5071 18.6804 26.8467 19.946C27.145 21.0579 27.0849 21.8945 26.6775 22.3019C26.0622 22.9172 24.5303 22.7337 22.58 21.8112C21.1217 21.1215 19.5398 20.0815 17.9656 18.7885C18.893 17.6544 18.9622 16.0485 18.1735 14.844L21.7312 11.2863C22.044 11.4449 22.3867 11.5247 22.7296 11.5247C23.2942 11.5247 23.8588 11.3097 24.2886 10.88C25.148 10.0204 25.148 8.62185 24.2886 7.76229C23.429 6.90281 22.0303 6.90274 21.1708 7.76229C20.48 8.45313 20.3448 9.49199 20.7645 10.3196L17.2071 13.877C16.6678 13.5225 16.0369 13.3318 15.3765 13.3318C14.5985 13.3318 13.8614 13.5959 13.2669 14.0814C11.9914 12.5222 10.9646 10.9571 10.2815 9.51277C9.35907 7.56234 9.1756 6.03062 9.7909 5.41531C10.7112 4.49485 13.9425 5.30505 18.1178 8.61945C18.4135 8.85413 18.8436 8.80478 19.0783 8.50905C19.313 8.21333 19.2636 7.78335 18.9679 7.5486C16.918 5.92138 14.9171 4.74143 13.1816 4.13631C10.7033 3.27211 9.44452 3.82869 8.82478 4.44803C8.82457 4.44823 8.82437 4.44837 8.82423 4.44851C6.58108 6.69172 5.46231 9.78375 5.67423 13.155C5.88402 16.494 7.37761 19.7108 9.87977 22.2131C10.3236 22.6568 10.7902 23.0682 11.2757 23.447C11.2739 23.4522 11.2716 23.4571 11.27 23.4624L9.36693 29.5261H7.7395C5.0981 29.5261 2.94922 31.6751 2.94922 34.3164C2.94922 34.6939 3.25533 35 3.63281 35H22.3506C22.7281 35 23.0342 34.6939 23.0342 34.3164C23.0342 31.675 20.8853 29.5261 18.244 29.5261H16.0027V25.8959C16.9599 26.1789 17.9434 26.3561 18.9379 26.4186ZM22.1375 8.7289C22.3007 8.56559 22.5151 8.48396 22.7296 8.48396C22.9441 8.48396 23.1585 8.56559 23.3217 8.72883C23.6482 9.05531 23.6482 9.5866 23.3217 9.91309C22.9953 10.2396 22.4639 10.2396 22.1375 9.91309C21.8109 9.58667 21.8109 9.05538 22.1375 8.7289ZM15.3765 14.6989C15.9038 14.6989 16.3996 14.9041 16.7726 15.2768C16.7728 15.277 16.773 15.2772 16.7732 15.2775C16.7734 15.2777 16.7737 15.2779 16.7739 15.2781C17.488 15.9929 17.5387 17.1229 16.9271 17.8973C16.4547 17.4747 15.9856 17.0313 15.5234 16.5692C15.0469 16.0927 14.5903 15.6087 14.1558 15.1214C14.5026 14.8477 14.928 14.6989 15.3765 14.6989ZM12.448 24.2744C13.1491 24.7192 13.881 25.0998 14.6355 25.4123V29.5261H14.6354H10.7997L12.448 24.2744ZM18.2439 30.8933C19.8974 30.8933 21.2808 32.0716 21.5983 33.6328H4.38483C4.70243 32.0716 6.08589 30.8933 7.73937 30.8933H18.2439ZM10.8464 21.2463C8.57984 18.9797 7.22749 16.0757 7.03854 13.0692C6.91324 11.0743 7.31253 9.1949 8.18062 7.58128C8.32432 8.33727 8.61231 9.18123 9.04558 10.0972C10.1611 12.4557 12.1183 15.0975 14.5568 17.536C16.9953 19.9745 19.637 21.9318 21.9955 23.0472C22.9097 23.4796 23.7522 23.7673 24.5071 23.9113C20.3893 26.1155 14.7556 25.1554 10.8464 21.2463Z" fill="white"/>
<path d="M22.7401 3.64935C22.3626 3.64935 22.0565 3.9554 22.0565 4.33295C22.0565 4.7105 22.3626 5.01654 22.7401 5.01654C25.1079 5.01654 27.0342 6.94284 27.0342 9.3106C27.0342 9.68815 27.3403 9.9942 27.7178 9.9942C28.0953 9.9942 28.4014 9.68815 28.4014 9.3106C28.4014 6.18897 25.8617 3.64935 22.7401 3.64935Z" fill="white"/>
<path d="M22.7401 0C22.3626 0 22.0565 0.306045 22.0565 0.683594C22.0565 1.06114 22.3626 1.36719 22.7401 1.36719C27.1201 1.36719 30.6835 4.93056 30.6835 9.31062C30.6835 9.68816 30.9897 9.99421 31.3671 9.99421C31.7446 9.99421 32.0507 9.68816 32.0507 9.31062C32.0507 4.17676 27.874 0 22.7401 0Z" fill="white"/>
</g>
<defs>
<clipPath id="clip0">
<rect width="35" height="35" fill="white"/>
</clipPath>
</defs>
</svg>
