<svg width="35" height="35" viewBox="0 0 35 35" fill="none" xmlns="http://www.w3.org/2000/svg">
<g clip-path="url(#clip0)">
<path d="M19.0205 17.2127C18.9251 17.0717 18.7661 16.9874 18.596 16.9874H17.1613L17.976 14.9506C18.0812 14.6877 17.9533 14.3893 17.6904 14.2842C17.4274 14.1788 17.1291 14.3069 17.024 14.5698L15.928 17.3097C15.8649 17.4677 15.8841 17.6467 15.9795 17.7875C16.0749 17.9284 16.2339 18.0128 16.404 18.0128H17.8387L17.024 20.0496C16.9188 20.3125 17.0467 20.6109 17.3096 20.716C17.3721 20.741 17.4365 20.7528 17.4998 20.7528C17.7033 20.7528 17.8958 20.6309 17.976 20.4305L19.072 17.6905C19.1351 17.5326 19.1159 17.3535 19.0205 17.2127Z" fill="white"/>
<path d="M32.173 2.93694C30.3521 1.08734 27.925 0.0448534 25.3386 0.00151349C22.7577 -0.04251 20.294 0.959435 18.4016 2.82039C16.4581 4.73158 15.3435 7.37586 15.3435 10.075V12.0555H13.6643C12.7772 12.0555 12.0556 12.7772 12.0556 13.6642V21.3358C12.0556 22.2229 12.7773 22.9445 13.6643 22.9445H15.3435V25.1717C15.3435 26.7184 14.6851 28.2049 13.5371 29.2499C12.3743 30.3083 10.8677 30.8096 9.29543 30.6616C6.50171 30.3987 4.31339 27.9096 4.31339 24.9951C4.31339 24.712 4.08384 24.4824 3.80069 24.4824C3.51755 24.4824 3.28799 24.712 3.28799 24.9951C3.28799 26.6486 3.88402 28.2436 4.96622 29.4864C6.06585 30.7491 7.56921 31.5291 9.19931 31.6825C9.41342 31.7026 9.62629 31.7126 9.83779 31.7126C11.4676 31.7126 13.0069 31.1191 14.2274 30.0081C15.5883 28.7692 16.3689 27.0064 16.3689 25.1717V22.9445H18.6314V24.925C18.6314 27.3511 17.6285 29.7289 15.8797 31.4485C14.1848 33.1152 11.9837 34.0119 9.67886 33.9732C7.3629 33.9345 5.18907 33.0006 3.55801 31.3437C1.92497 29.6849 1.0257 27.493 1.0257 25.1716V18.048C1.0257 18.0285 1.0415 18.0127 1.06098 18.0127H3.25286C3.27234 18.0127 3.28813 18.0285 3.28813 18.048V22.7743C3.28813 23.0575 3.51768 23.287 3.80083 23.287C4.08397 23.287 4.31352 23.0575 4.31352 22.7743V18.048C4.31352 17.4631 3.83774 16.9873 3.25286 16.9873H2.66955V14.2122C2.66955 13.929 2.43999 13.6995 2.15685 13.6995C1.8737 13.6995 1.64415 13.929 1.64415 14.2122V16.9873H1.06091C0.476026 16.9873 0.000244141 17.4631 0.000244141 18.048V25.1716C0.000244141 27.7639 1.00424 30.2114 2.82725 32.0631C4.64814 33.9127 7.07532 34.9552 9.6617 34.9985C9.71529 34.9994 9.76854 34.9999 9.822 34.9999C12.3445 34.9999 14.7455 34.002 16.5986 32.1796C18.5421 30.2684 19.6567 27.6242 19.6567 24.925V22.9445H21.3359C22.223 22.9445 22.9446 22.2228 22.9446 21.3358V13.6643C22.9446 12.7772 22.2229 12.0556 21.3359 12.0556H19.6567V9.8284C19.6567 8.28169 20.3151 6.79522 21.4631 5.75021C22.6259 4.6918 24.1324 4.19058 25.7048 4.33845C28.4985 4.60142 30.6868 7.09046 30.6868 10.005C30.6868 10.2881 30.9164 10.5177 31.1995 10.5177C31.4827 10.5177 31.7122 10.2881 31.7122 10.005C31.7122 8.35149 31.1162 6.75646 30.034 5.51368C28.9344 4.25094 27.431 3.47103 25.8009 3.31763C23.9371 3.14222 22.1517 3.73681 20.7729 4.99196C19.4119 6.23091 18.6313 7.9937 18.6313 9.8284V12.0556H16.3687V10.0751C16.3687 7.64896 17.3717 5.27121 19.1205 3.55156C20.8153 1.88489 23.0167 0.988761 25.3213 1.02684C27.6372 1.0656 29.8111 1.99946 31.4421 3.65635C33.0752 5.31517 33.9744 7.50711 33.9744 9.82847V16.9521C33.9744 16.9716 33.9586 16.9873 33.9392 16.9873H31.7473C31.7278 16.9873 31.712 16.9716 31.712 16.9521V12.2258C31.712 11.9426 31.4825 11.7131 31.1993 11.7131C30.9162 11.7131 30.6866 11.9426 30.6866 12.2258V16.9521C30.6866 17.537 31.1624 18.0127 31.7473 18.0127H32.3305V20.7879C32.3305 21.0711 32.5601 21.3006 32.8432 21.3006C33.1264 21.3006 33.3559 21.0711 33.3559 20.7879V18.0127H33.9392C34.524 18.0127 34.9998 17.537 34.9998 16.9521V9.8284C35 7.23614 33.996 4.7888 32.173 2.93694ZM21.3359 13.081C21.6575 13.081 21.9192 13.3427 21.9192 13.6643V21.3359C21.9192 21.6575 21.6575 21.9191 21.3359 21.9191H13.6643C13.3427 21.9191 13.081 21.6575 13.081 21.3359V13.6643C13.081 13.3426 13.3427 13.081 13.6643 13.081H21.3359Z" fill="white"/>
<path d="M1.51934 12.339L0.971371 11.2431C0.844769 10.9898 0.53681 10.8871 0.283538 11.0138C0.0302657 11.1404 -0.0724102 11.4484 0.0542599 11.7017L0.60223 12.7976C0.692054 12.9773 0.87307 13.0811 1.0612 13.0811C1.13824 13.0811 1.21644 13.0637 1.29006 13.0269C1.54334 12.9003 1.64601 12.5923 1.51934 12.339Z" fill="white"/>
<path d="M4.03002 11.0138C3.77675 10.8871 3.46879 10.9899 3.34219 11.2431L2.79422 12.339C2.66762 12.5923 2.77023 12.9003 3.0235 13.0269C3.09712 13.0637 3.17532 13.0811 3.25237 13.0811C3.44042 13.0811 3.62151 12.9772 3.71133 12.7976L4.2593 11.7016C4.38597 11.4484 4.2833 11.1404 4.03002 11.0138Z" fill="white"/>
<path d="M34.9458 23.2985L34.3979 22.2026C34.2713 21.9493 33.9634 21.8466 33.7101 21.9733C33.4568 22.0999 33.3541 22.4079 33.4808 22.6611L34.0287 23.7571C34.1186 23.9367 34.2996 24.0406 34.4877 24.0406C34.5647 24.0406 34.6429 24.0231 34.7166 23.9863C34.9698 23.8597 35.0725 23.5518 34.9458 23.2985Z" fill="white"/>
<path d="M31.9766 21.9733C31.7233 21.8465 31.4154 21.9494 31.2887 22.2026L30.7408 23.2985C30.6141 23.5518 30.7168 23.8597 30.9701 23.9863C31.0437 24.0232 31.1219 24.0405 31.1989 24.0405C31.387 24.0405 31.5681 23.9366 31.6579 23.7571L32.2059 22.6611C32.3325 22.4078 32.2299 22.0999 31.9766 21.9733Z" fill="white"/>
</g>
<defs>
<clipPath id="clip0">
<rect width="35" height="35" fill="white"/>
</clipPath>
</defs>
</svg>
