<svg width="35" height="35" viewBox="0 0 35 35" fill="none" xmlns="http://www.w3.org/2000/svg">
<path d="M29.0076 18.6312C24.0236 18.6312 19.9381 14.7116 19.671 9.79303H20.24C20.5231 9.79303 20.7527 9.56348 20.7527 9.28033V7.63636C20.7527 6.74933 20.031 6.02772 19.1441 6.02772C18.2571 6.02772 17.5354 6.74939 17.5354 7.63636V9.28033C17.5354 9.56348 17.765 9.79303 18.0481 9.79303H18.6442C18.6635 10.1881 18.7055 10.5772 18.7679 10.9595H14.725V9.28033C14.725 8.99719 14.4954 8.76764 14.2123 8.76764C13.9291 8.76764 13.6996 8.99719 13.6996 9.28033V18.0474C13.297 17.8975 12.9074 17.7207 12.5331 17.5191V5.95718H13.6996V7.08812C13.6996 7.37126 13.9291 7.60081 14.2123 7.60081C14.4954 7.60081 14.725 7.37126 14.725 7.08812V5.95718H16.9522C17.5371 5.95718 18.0129 5.4814 18.0129 4.89651V3.7653H18.5961C18.8792 3.7653 19.1088 3.53575 19.1088 3.25261V1.60863C19.1087 0.72167 18.3871 0 17.5001 0C16.6131 0 15.8915 0.72167 15.8915 1.60863V3.25254C15.8915 3.53568 16.121 3.76523 16.4041 3.76523H16.9874V4.89645C16.9874 4.91593 16.9716 4.93172 16.9521 4.93172H13.629V3.7653H14.2122C14.4954 3.7653 14.7249 3.53575 14.7249 3.25261V1.60863C14.7249 0.72167 14.0033 0 13.1163 0C12.2292 0 11.5076 0.72167 11.5076 1.60863V3.25254C11.5076 3.53568 11.7372 3.76523 12.0203 3.76523H12.6036V4.93172H9.28042C9.26094 4.93172 9.24508 4.91593 9.24508 4.89645V3.7653H9.82839C10.1115 3.7653 10.3411 3.53575 10.3411 3.25261V1.60863C10.3411 0.72167 9.61948 0 8.73245 0C7.84542 0 7.12382 0.72167 7.12382 1.60863V3.25254C7.12382 3.53568 7.35337 3.76523 7.63651 3.76523H8.21976V4.89645C8.21976 5.48133 8.69561 5.95711 9.28049 5.95711H11.5077V10.9595H7.75259C7.68313 10.5781 7.63699 10.1888 7.61553 9.79303H8.18455C8.4677 9.79303 8.69725 9.56348 8.69725 9.28033V7.63636C8.69725 6.74933 7.97558 6.02772 7.08861 6.02772C6.20165 6.02772 5.47998 6.74939 5.47998 7.63636V9.28033C5.47998 9.56348 5.70953 9.79303 5.99268 9.79303H6.5887C6.76042 13.3053 8.68692 16.3639 11.5078 18.1098V33.9746H10.3766C10.0934 33.9746 9.86387 34.2042 9.86387 34.4873C9.86387 34.7704 10.0934 35 10.3766 35H15.8563C16.1395 35 16.369 34.7704 16.369 34.4873C16.369 34.2042 16.1395 33.9746 15.8563 33.9746H14.7251V19.4152C15.4429 19.5728 16.1879 19.6566 16.9523 19.6566C17.2355 19.6566 17.465 19.4271 17.465 19.1439C17.465 18.8608 17.2355 18.6312 16.9523 18.6312C16.185 18.6312 15.4393 18.5376 14.7251 18.3625V11.985H18.9898C20.1827 16.3991 24.2217 19.6567 29.0078 19.6567C29.2909 19.6567 29.5205 19.4271 29.5205 19.144C29.5205 18.8608 29.2908 18.6312 29.0076 18.6312ZM16.9168 2.73984V1.60863C16.9168 1.287 17.1785 1.02539 17.5001 1.02539C17.8217 1.02539 18.0833 1.28707 18.0833 1.60863V2.73984H16.9168ZM12.533 2.73984V1.60863C12.533 1.287 12.7947 1.02539 13.1163 1.02539C13.4378 1.02539 13.6995 1.28707 13.6995 1.60863V2.73984H12.533ZM8.14914 2.73984V1.60863C8.14914 1.287 8.41082 1.02539 8.73245 1.02539C9.05408 1.02539 9.31569 1.28707 9.31569 1.60863V2.73984H8.14914ZM6.50523 8.76764V7.63636C6.50523 7.31473 6.76691 7.05312 7.08848 7.05312C7.41004 7.05312 7.67172 7.31479 7.67172 7.63636V8.76764H6.50523ZM11.5076 16.8783C9.85457 15.6903 8.60359 13.9771 8.00053 11.985H11.5076V16.8783ZM13.6995 33.9746H12.533V28.4243H13.6995V33.9746ZM13.6995 27.3989H12.533V18.6672C12.91 18.8454 13.2994 19.0015 13.6995 19.1339V27.3989ZM18.5608 8.76764V7.63636C18.5608 7.31473 18.8224 7.05312 19.144 7.05312C19.4656 7.05312 19.7272 7.31479 19.7272 7.63636V8.76764H18.5608Z" fill="white"/>
</svg>
